#!OML:ASF F:\VICON\USERDATA\INSTALL\rory3\rory3.ASF
:FULLY-SPECIFIED
:DEGREES
367
root 0.277252 17.8673 39.0649 -4.09255 -8.54752 -0.792748
lowerback 10.3007 3.92565 1.67685
upperback 0.571879 5.42132 0.171529
thorax -5.02367 2.63717 -1.53615
lowerneck -16.9514 -2.72358 -0.982504
upperneck 20.7704 -3.87515 1.47548
head 9.39989 -1.71539 0.169021
rclavicle 8.12416e-015 5.65294e-015
rhumerus -27.2135 -14.7502 -81.8151
rradius 25.867
rwrist 5.00933
rhand -17.776 23.4721
rfingers 7.12502
rthumb 8.48654 -6.33736
lclavicle 8.12416e-015 5.65294e-015
lhumerus -36.724 4.99537 81.8081
lradius 18.6632
lwrist 2.64348
lhand -25.6573 22.7549
lfingers 7.12502
lthumb 0.8767 52.7329
rfemur -3.73081 2.92432 21.861
rtibia 65.8637
rfoot 19.1082 0.542078
rtoes 13.042
lfemur -14.417 -2.2892 -22.7755
ltibia 27.8688
lfoot -4.3716 3.71622
ltoes 2.4151
368
root 0.285742 17.8709 39.2388 -4.24551 -8.43222 -0.814891
lowerback 10.3797 3.77864 1.69769
upperback 0.661509 5.23141 0.235404
thorax -4.9842 2.54468 -1.45711
lowerneck -16.6464 -2.56957 -0.841707
upperneck 20.3919 -3.6142 1.14724
head 9.19869 -1.62546 0.0735353
rclavicle -2.61666e-014 1.01877e-015
rhumerus -27.2148 -14.6621 -81.8234
rradius 25.7293
rwrist 5.52716
rhand -17.6394 23.8792
rfingers 7.12502
rthumb 8.61835 -5.92487
lclavicle -2.61666e-014 1.01877e-015
lhumerus -36.4807 5.29701 81.6972
lradius 18.9978
lwrist 2.42622
lhand -25.8039 22.4613
lfingers 7.12502
lthumb 0.735139 52.4397
rfemur -5.13639 2.52405 21.8419
rtibia 67.8561
rfoot 17.4658 -0.257635
rtoes 15.1475
lfemur -13.7143 -2.2615 -22.9278
ltibia 28.0627
lfoot -5.07434 3.95054
ltoes 3.19566
369
root 0.297577 17.875 39.4127 -4.21833 -8.01059 -0.0850894
lowerback 10.2513 3.61431 0.979906
upperback 0.881046 4.91627 0.0692837
thorax -4.73808 2.4077 -1.1688
lowerneck -17.4302 -2.70405 -1.10798
upperneck 20.5362 -3.79843 1.45104
head 9.4072 -1.69085 0.186208
rclavicle 2.29457e-014 -4.67144e-015
rhumerus -26.694 -14.7753 -81.925
rradius 25.5819
rwrist 5.96826
rhand -17.2663 23.2236
rfingers 7.12502
rthumb 8.9784 -6.5654
lclavicle 2.29457e-014 -4.67144e-015
lhumerus -35.6544 5.70979 81.6055
lradius 19.1437
lwrist 2.13629
lhand -26.1049 22.4932
lfingers 7.12502
lthumb 0.444433 52.4725
rfemur -6.72272 1.79854 20.8588
rtibia 69.672
rfoot 15.3816 -0.785185
rtoes 14.1965
lfemur -13.3648 -2.58086 -23.9388
ltibia 28.1487
lfoot -5.60328 4.15701
ltoes 3.68442
370
root 0.307831 17.8729 39.5908 -4.34573 -7.6502 0.399443
lowerback 10.3067 3.45004 0.470829
upperback 0.97201 4.6374 0.0319046
thorax -4.71722 2.28007 -0.886586
lowerneck -17.9024 -2.87854 -2.04521
upperneck 21.3034 -4.11723 2.77916
head 9.82272 -1.74876 0.749281
rclavicle -3.6508e-014 -8.64713e-015
rhumerus -26.4817 -15.1056 -81.7836
rradius 25.2528
rwrist 6.93118
rhand -16.9552 22.779
rfingers 7.12502
rthumb 9.27856 -6.99686
lclavicle -3.6508e-014 -8.64713e-015
lhumerus -35.1687 5.97207 81.5961
lradius 19.1484
lwrist 1.98644
lhand -25.9782 23.3266
lfingers 7.12502
lthumb 0.566778 53.3056
rfemur -7.97267 1.06697 20.1817
rtibia 71.2518
rfoot 13.2808 -1.16683
rtoes 13.144
lfemur -12.6783 -2.72358 -24.692
ltibia 28.2272
lfoot -6.15204 4.23941
ltoes 3.49122
371
root 0.308771 17.873 39.7721 -4.61833 -7.59971 0.295461
lowerback 10.6162 3.3577 0.485973
upperback 1.02716 4.52212 0.133065
thorax -4.84056 2.22197 -0.792226
lowerneck -17.9237 -3.03154 -2.94804
upperneck 21.7575 -4.31294 3.67986
head 10.038 -1.80335 1.18726
rclavicle 1.68563e-014 1.30204e-014
rhumerus -26.4687 -15.6589 -81.5965
rradius 24.9316
rwrist 8.12966
rhand -16.8414 22.5265
rfingers 7.12502
rthumb 9.38835 -7.24437
lclavicle 1.68563e-014 1.30204e-014
lhumerus -34.842 5.94682 81.6089
lradius 19.3192
lwrist 2.16253
lhand -25.4991 24.4688
lfingers 7.12502
lthumb 1.02956 54.4461
rfemur -9.06002 0.828706 20.3607
rtibia 72.6146
rfoot 11.3124 -2.09646
rtoes 13.2124
lfemur -11.6159 -2.59496 -24.7388
ltibia 28.2931
lfoot -6.78264 4.39689
ltoes 3.18379
372
root 0.302852 17.8725 39.9415 -4.60881 -7.56052 -0.116802
lowerback 10.8082 3.20784 0.694636
upperback 0.935594 4.35898 0.303454
thorax -5.04345 2.13612 -0.723657
lowerneck -17.2494 -2.72924 -2.54219
upperneck 21.5388 -3.78958 2.79008
head 9.78585 -1.64222 0.887906
rclavicle 2.18818e-014 -1.13307e-014
rhumerus -26.7298 -15.7382 -81.6024
rradius 24.9152
rwrist 8.52584
rhand -17.0717 22.4522
rfingers 7.12502
rthumb 9.16615 -7.32858
lclavicle 2.18818e-014 -1.13307e-014
lhumerus -34.6775 5.82165 81.5773
lradius 19.718
lwrist 2.45583
lhand -25.5022 25.285
lfingers 7.12502
lthumb 1.02652 55.2623
rfemur -10.5804 0.714769 21.007
rtibia 73.7995
rfoot 9.49312 -3.11057
rtoes 12.8055
lfemur -10.994 -2.51306 -24.3658
ltibia 28.4676
lfoot -7.4858 4.55238
ltoes 3.1091
373
root 0.304001 17.871 40.1019 -4.39237 -7.26591 -0.0578603
lowerback 10.6199 3.00592 0.556983
upperback 0.804129 4.07576 0.320164
thorax -5.09075 1.99935 -0.581555
lowerneck -16.8373 -2.39396 -1.35123
upperneck 21.2456 -3.25762 1.18601
head 9.53787 -1.48886 0.20994
rclavicle -3.21193e-014 -4.87022e-015
rhumerus -27.1441 -15.7067 -81.6179
rradius 25.2504
rwrist 8.25264
rhand -17.1844 22.7572
rfingers 7.12502
rthumb 9.05744 -7.02829
lclavicle -3.21193e-014 -4.87022e-015
lhumerus -34.4393 5.32129 81.676
lradius 19.9498
lwrist 2.85663
lhand -26.2461 23.8163
lfingers 7.12502
lthumb 0.308052 53.7958
rfemur -12.365 0.387054 21.0036
rtibia 74.8232
rfoot 7.75371 -3.95073
rtoes 14.7917
lfemur -10.8157 -2.56957 -24.5257
ltibia 28.561
lfoot -7.96149 4.54264
ltoes 2.94456
374
root 0.31276 17.8725 40.2767 -4.36886 -6.88816 0.187221
lowerback 10.6382 2.81569 0.372972
upperback 0.633515 3.8001 0.26221
thorax -5.29061 1.86516 -0.50544
lowerneck -18.892 -4.15529 -3.52321
upperneck 23.1204 -5.66326 3.32645
head 10.774 -2.49025 0.944368
rclavicle 4.31083e-014 -1.50082e-014
rhumerus -27.7135 -16.0411 -81.4156
rradius 25.51
rwrist 8.32923
rhand -17.3238 22.6045
rfingers 7.12502
rthumb 8.92293 -7.1868
lclavicle 4.31083e-014 -1.50082e-014
lhumerus -34.2881 4.79344 81.7446
lradius 20.0785
lwrist 2.97521
lhand -27.0637 21.4425
lfingers 7.12502
lthumb -0.48165 51.4217
rfemur -13.6448 -0.113717 20.6946
rtibia 75.529
rfoot 5.762 -4.63512
rtoes 16.0622
lfemur -10.3915 -2.61988 -24.9688
ltibia 28.5635
lfoot -8.34169 4.45567
ltoes 3.31621
375
root 0.316443 17.8789 40.4588 -4.38406 -6.57323 0.383955
lowerback 10.6871 2.64965 0.16558
upperback 0.591521 3.55404 0.243525
thorax -5.37517 1.74801 -0.376155
lowerneck -16.9361 -2.31727 -1.48522
upperneck 22.1595 -3.32007 1.93419
head 9.89752 -1.43559 0.479566
rclavicle 1.86299e-014 7.65321e-015
rhumerus -27.9044 -16.4027 -81.2314
rradius 25.4694
rwrist 8.67174
rhand -17.6952 21.3339
rfingers 7.12502
rthumb 8.56452 -8.47244
lclavicle 1.86299e-014 7.65321e-015
lhumerus -33.9135 4.34847 81.8618
lradius 20.3842
lwrist 3.3201
lhand -26.4468 20.8298
lfingers 7.12502
lthumb 0.114167 50.8095
rfemur -14.8055 -0.532009 20.4662
rtibia 75.9992
rfoot 3.56723 -5.11074
rtoes 13.2962
lfemur -9.76657 -2.56797 -25.326
ltibia 28.4332
lfoot -8.96886 4.3121
ltoes 4.35592
376
root 0.315999 17.881 40.6321 -4.30934 -6.29374 0.271519
lowerback 10.5418 2.51866 0.280409
upperback 0.812934 3.39435 0.301002
thorax -5.05903 1.66977 -0.342739
lowerneck -17.1453 -2.36601 -1.42539
upperneck 21.8966 -3.34219 1.7208
head 9.83835 -1.46599 0.390477
rclavicle -1.13369e-014 1.47101e-014
rhumerus -27.6447 -16.7483 -81.2334
rradius 25.5565
rwrist 8.22266
rhand -18.058 21.5987
rfingers 7.12502
rthumb 8.21432 -8.22162
lclavicle -1.13369e-014 1.47101e-014
lhumerus -32.8789 4.08727 82.0009
lradius 20.5089
lwrist 3.36423
lhand -25.6502 21.0685
lfingers 7.12502
lthumb 0.883605 51.0464
rfemur -16.1203 -0.819531 20.6835
rtibia 76.2955
rfoot 1.72457 -5.42343
rtoes 11.0284
lfemur -9.20096 -2.61044 -25.3136
ltibia 28.3464
lfoot -9.58491 4.316
ltoes 5.73411
377
root 0.318815 17.8776 40.7942 -4.18328 -5.96119 0.480153
lowerback 10.459 2.34441 -0.00319584
upperback 0.784189 3.13152 0.335075
thorax -5.06117 1.5469 -0.107166
lowerneck -16.6402 -2.43801 -1.80212
upperneck 21.4188 -3.33023 1.70521
head 9.58152 -1.50073 0.456384
rclavicle 1.37721e-014 3.97569e-015
rhumerus -27.7307 -16.5785 -81.2098
rradius 25.6153
rwrist 7.08921
rhand -17.8709 22.5916
rfingers 7.12502
rthumb 8.39492 -7.22157
lclavicle 1.37721e-014 3.97569e-015
lhumerus -32.3014 3.60221 82.2496
lradius 20.6321
lwrist 4.18066
lhand -25.6584 20.6172
lfingers 7.12502
lthumb 0.875645 50.5951
rfemur -17.6411 -1.11565 20.5338
rtibia 76.4941
rfoot 0.382035 -5.5397
rtoes 11.0868
lfemur -8.77567 -2.81257 -25.6666
ltibia 28.3372
lfoot -10.0128 4.39741
ltoes 5.49496
